<svg width="1880" height="200" viewBox="0 0 1880 200" fill="none" xmlns="http://www.w3.org/2000/svg">
<path d="M216.922 94V77.2H229.21V78.712H218.674V84.208H224.17C226.154 84.208 227.658 84.616 228.682 85.432C229.722 86.232 230.242 87.416 230.242 88.984C230.242 90.6 229.682 91.84 228.562 92.704C227.458 93.568 225.866 94 223.786 94H216.922ZM218.674 92.584H223.762C225.314 92.584 226.482 92.288 227.266 91.696C228.066 91.088 228.466 90.208 228.466 89.056C228.466 86.768 226.898 85.624 223.762 85.624H218.674V92.584ZM246.216 94V81.4H247.92V94H246.216ZM239.232 85.84C240.816 85.856 242.024 86.208 242.856 86.896C243.688 87.584 244.104 88.576 244.104 89.872C244.104 91.216 243.656 92.248 242.76 92.968C241.864 93.688 240.584 94.04 238.92 94.024L233.928 94V81.4H235.632V85.792L239.232 85.84ZM238.8 92.728C239.984 92.744 240.872 92.512 241.464 92.032C242.072 91.536 242.376 90.816 242.376 89.872C242.376 88.928 242.08 88.24 241.488 87.808C240.896 87.36 240 87.128 238.8 87.112L235.632 87.064V92.68L238.8 92.728ZM258.052 94.12C256.804 94.12 255.684 93.848 254.692 93.304C253.716 92.744 252.948 91.984 252.388 91.024C251.828 90.048 251.548 88.936 251.548 87.688C251.548 86.424 251.828 85.312 252.388 84.352C252.948 83.392 253.716 82.64 254.692 82.096C255.684 81.552 256.804 81.28 258.052 81.28C259.124 81.28 260.092 81.488 260.956 81.904C261.82 82.32 262.5 82.944 262.996 83.776L261.724 84.64C261.292 84 260.756 83.528 260.116 83.224C259.476 82.92 258.78 82.768 258.028 82.768C257.132 82.768 256.324 82.976 255.604 83.392C254.884 83.792 254.316 84.36 253.9 85.096C253.484 85.832 253.276 86.696 253.276 87.688C253.276 88.68 253.484 89.544 253.9 90.28C254.316 91.016 254.884 91.592 255.604 92.008C256.324 92.408 257.132 92.608 258.028 92.608C258.78 92.608 259.476 92.456 260.116 92.152C260.756 91.848 261.292 91.384 261.724 90.76L262.996 91.624C262.5 92.44 261.82 93.064 260.956 93.496C260.092 93.912 259.124 94.12 258.052 94.12ZM268.461 94V82.432L268.893 82.888H263.685V81.4H274.941V82.888H269.733L270.165 82.432V94H268.461ZM283.908 94.12C282.82 94.12 281.836 93.872 280.956 93.376C280.076 92.864 279.372 92.136 278.844 91.192C278.332 90.232 278.076 89.064 278.076 87.688C278.076 86.312 278.332 85.152 278.844 84.208C279.356 83.248 280.052 82.52 280.932 82.024C281.812 81.528 282.804 81.28 283.908 81.28C285.108 81.28 286.18 81.552 287.124 82.096C288.084 82.624 288.836 83.376 289.38 84.352C289.924 85.312 290.196 86.424 290.196 87.688C290.196 88.968 289.924 90.088 289.38 91.048C288.836 92.008 288.084 92.76 287.124 93.304C286.18 93.848 285.108 94.12 283.908 94.12ZM277.404 98.656V81.4H279.036V85.192L278.868 87.712L279.108 90.256V98.656H277.404ZM283.788 92.608C284.684 92.608 285.484 92.408 286.188 92.008C286.892 91.592 287.452 91.016 287.868 90.28C288.284 89.528 288.492 88.664 288.492 87.688C288.492 86.712 288.284 85.856 287.868 85.12C287.452 84.384 286.892 83.808 286.188 83.392C285.484 82.976 284.684 82.768 283.788 82.768C282.892 82.768 282.084 82.976 281.364 83.392C280.66 83.808 280.1 84.384 279.684 85.12C279.284 85.856 279.084 86.712 279.084 87.688C279.084 88.664 279.284 89.528 279.684 90.28C280.1 91.016 280.66 91.592 281.364 92.008C282.084 92.408 282.892 92.608 283.788 92.608ZM301.611 94V91.216L301.539 90.76V86.104C301.539 85.032 301.235 84.208 300.627 83.632C300.035 83.056 299.147 82.768 297.963 82.768C297.147 82.768 296.371 82.904 295.635 83.176C294.899 83.448 294.275 83.808 293.763 84.256L292.995 82.984C293.635 82.44 294.403 82.024 295.299 81.736C296.195 81.432 297.139 81.28 298.131 81.28C299.763 81.28 301.019 81.688 301.899 82.504C302.795 83.304 303.243 84.528 303.243 86.176V94H301.611ZM297.267 94.12C296.323 94.12 295.499 93.968 294.795 93.664C294.107 93.344 293.579 92.912 293.211 92.368C292.843 91.808 292.659 91.168 292.659 90.448C292.659 89.792 292.811 89.2 293.115 88.672C293.435 88.128 293.947 87.696 294.651 87.376C295.371 87.04 296.331 86.872 297.531 86.872H301.875V88.144H297.579C296.363 88.144 295.515 88.36 295.035 88.792C294.571 89.224 294.339 89.76 294.339 90.4C294.339 91.12 294.619 91.696 295.179 92.128C295.739 92.56 296.523 92.776 297.531 92.776C298.491 92.776 299.315 92.56 300.003 92.128C300.707 91.68 301.219 91.04 301.539 90.208L301.923 91.384C301.603 92.216 301.043 92.88 300.243 93.376C299.459 93.872 298.467 94.12 297.267 94.12ZM315.915 94V89.464L316.227 89.824H311.955C310.339 89.824 309.075 89.472 308.163 88.768C307.251 88.064 306.795 87.04 306.795 85.696C306.795 84.256 307.283 83.184 308.259 82.48C309.235 81.76 310.539 81.4 312.171 81.4H317.475V94H315.915ZM306.699 94L310.155 89.152H311.931L308.547 94H306.699ZM315.915 88.96V82.384L316.227 82.888H312.219C311.051 82.888 310.139 83.112 309.483 83.56C308.843 84.008 308.523 84.736 308.523 85.744C308.523 87.616 309.715 88.552 312.099 88.552H316.227L315.915 88.96ZM222.154 122.184V111.888H216.082L215.938 114.696C215.906 115.544 215.85 116.376 215.77 117.192C215.706 118.008 215.586 118.76 215.41 119.448C215.25 120.12 215.018 120.672 214.714 121.104C214.41 121.52 214.018 121.76 213.538 121.824L211.834 121.512C212.33 121.528 212.738 121.352 213.058 120.984C213.378 120.6 213.626 120.08 213.802 119.424C213.978 118.768 214.106 118.024 214.186 117.192C214.266 116.344 214.33 115.48 214.378 114.6L214.546 110.4H223.858V122.184H222.154ZM211.306 126.048V121.512H225.826V126.048H224.218V123H212.914V126.048H211.306ZM234.331 123.12C233.115 123.12 232.019 122.848 231.043 122.304C230.083 121.744 229.323 120.984 228.763 120.024C228.203 119.048 227.923 117.936 227.923 116.688C227.923 115.424 228.203 114.312 228.763 113.352C229.323 112.392 230.083 111.64 231.043 111.096C232.003 110.552 233.099 110.28 234.331 110.28C235.579 110.28 236.683 110.552 237.643 111.096C238.619 111.64 239.379 112.392 239.923 113.352C240.483 114.312 240.763 115.424 240.763 116.688C240.763 117.936 240.483 119.048 239.923 120.024C239.379 120.984 238.619 121.744 237.643 122.304C236.667 122.848 235.563 123.12 234.331 123.12ZM234.331 121.608C235.243 121.608 236.051 121.408 236.755 121.008C237.459 120.592 238.011 120.016 238.411 119.28C238.827 118.528 239.035 117.664 239.035 116.688C239.035 115.696 238.827 114.832 238.411 114.096C238.011 113.36 237.459 112.792 236.755 112.392C236.051 111.976 235.251 111.768 234.355 111.768C233.459 111.768 232.659 111.976 231.955 112.392C231.251 112.792 230.691 113.36 230.275 114.096C229.859 114.832 229.651 115.696 229.651 116.688C229.651 117.664 229.859 118.528 230.275 119.28C230.691 120.016 231.251 120.592 231.955 121.008C232.659 121.408 233.451 121.608 234.331 121.608ZM249.684 123.12C248.436 123.12 247.316 122.848 246.324 122.304C245.348 121.744 244.58 120.984 244.02 120.024C243.46 119.048 243.18 117.936 243.18 116.688C243.18 115.424 243.46 114.312 244.02 113.352C244.58 112.392 245.348 111.64 246.324 111.096C247.316 110.552 248.436 110.28 249.684 110.28C250.756 110.28 251.724 110.488 252.588 110.904C253.452 111.32 254.132 111.944 254.628 112.776L253.356 113.64C252.924 113 252.388 112.528 251.748 112.224C251.108 111.92 250.412 111.768 249.66 111.768C248.764 111.768 247.956 111.976 247.236 112.392C246.516 112.792 245.948 113.36 245.532 114.096C245.116 114.832 244.908 115.696 244.908 116.688C244.908 117.68 245.116 118.544 245.532 119.28C245.948 120.016 246.516 120.592 247.236 121.008C247.956 121.408 248.764 121.608 249.66 121.608C250.412 121.608 251.108 121.456 251.748 121.152C252.388 120.848 252.924 120.384 253.356 119.76L254.628 120.624C254.132 121.44 253.452 122.064 252.588 122.496C251.724 122.912 250.756 123.12 249.684 123.12ZM260.094 123V111.432L260.526 111.888H255.318V110.4H266.574V111.888H261.366L261.798 111.432V123H260.094ZM276.861 123V120.216L276.789 119.76V115.104C276.789 114.032 276.485 113.208 275.877 112.632C275.285 112.056 274.397 111.768 273.213 111.768C272.397 111.768 271.621 111.904 270.885 112.176C270.149 112.448 269.525 112.808 269.013 113.256L268.245 111.984C268.885 111.44 269.653 111.024 270.549 110.736C271.445 110.432 272.389 110.28 273.381 110.28C275.013 110.28 276.269 110.688 277.149 111.504C278.045 112.304 278.493 113.528 278.493 115.176V123H276.861ZM272.517 123.12C271.573 123.12 270.749 122.968 270.045 122.664C269.357 122.344 268.829 121.912 268.461 121.368C268.093 120.808 267.909 120.168 267.909 119.448C267.909 118.792 268.061 118.2 268.365 117.672C268.685 117.128 269.197 116.696 269.901 116.376C270.621 116.04 271.581 115.872 272.781 115.872H277.125V117.144H272.829C271.613 117.144 270.765 117.36 270.285 117.792C269.821 118.224 269.589 118.76 269.589 119.4C269.589 120.12 269.869 120.696 270.429 121.128C270.989 121.56 271.773 121.776 272.781 121.776C273.741 121.776 274.565 121.56 275.253 121.128C275.957 120.68 276.469 120.04 276.789 119.208L277.173 120.384C276.853 121.216 276.293 121.88 275.493 122.376C274.709 122.872 273.717 123.12 272.517 123.12ZM283.029 123V110.4H288.597C290.021 110.4 291.141 110.672 291.957 111.216C292.789 111.76 293.205 112.56 293.205 113.616C293.205 114.64 292.813 115.432 292.029 115.992C291.245 116.536 290.213 116.808 288.933 116.808L289.269 116.304C290.773 116.304 291.877 116.584 292.581 117.144C293.285 117.704 293.637 118.512 293.637 119.568C293.637 120.656 293.237 121.504 292.437 122.112C291.653 122.704 290.429 123 288.765 123H283.029ZM284.685 121.656H288.693C289.765 121.656 290.573 121.488 291.117 121.152C291.677 120.8 291.957 120.24 291.957 119.472C291.957 118.704 291.709 118.144 291.213 117.792C290.717 117.44 289.933 117.264 288.861 117.264H284.685V121.656ZM284.685 115.992H288.477C289.453 115.992 290.197 115.808 290.709 115.44C291.237 115.072 291.501 114.536 291.501 113.832C291.501 113.128 291.237 112.6 290.709 112.248C290.197 111.896 289.453 111.72 288.477 111.72H284.685V115.992ZM306.871 123L301.687 116.76L303.103 115.92L308.887 123H306.871ZM297.631 123V110.4H299.335V123H297.631ZM298.807 117.384V115.92H302.863V117.384H298.807ZM303.247 116.88L301.663 116.64L306.679 110.4H308.527L303.247 116.88ZM319.166 123V120.216L319.094 119.76V115.104C319.094 114.032 318.79 113.208 318.182 112.632C317.59 112.056 316.702 111.768 315.518 111.768C314.702 111.768 313.926 111.904 313.19 112.176C312.454 112.448 311.83 112.808 311.318 113.256L310.55 111.984C311.19 111.44 311.958 111.024 312.854 110.736C313.75 110.432 314.694 110.28 315.686 110.28C317.318 110.28 318.574 110.688 319.454 111.504C320.35 112.304 320.798 113.528 320.798 115.176V123H319.166ZM314.822 123.12C313.878 123.12 313.054 122.968 312.35 122.664C311.662 122.344 311.134 121.912 310.766 121.368C310.398 120.808 310.214 120.168 310.214 119.448C310.214 118.792 310.366 118.2 310.67 117.672C310.99 117.128 311.502 116.696 312.206 116.376C312.926 116.04 313.886 115.872 315.086 115.872H319.43V117.144H315.134C313.918 117.144 313.07 117.36 312.59 117.792C312.126 118.224 311.894 118.76 311.894 119.4C311.894 120.12 312.174 120.696 312.734 121.128C313.294 121.56 314.078 121.776 315.086 121.776C316.046 121.776 316.87 121.56 317.558 121.128C318.262 120.68 318.774 120.04 319.094 119.208L319.478 120.384C319.158 121.216 318.598 121.88 317.798 122.376C317.014 122.872 316.022 123.12 314.822 123.12Z" fill="black"/>
<path d="M135.899 69.25C137.624 69.3384 139.245 70.1077 140.404 71.3887C141.563 72.6695 142.167 74.3575 142.083 76.083V84.6934L157.8 97.335C158.216 97.6462 158.555 98.048 158.792 98.5098C159.028 98.9715 159.156 99.4812 159.167 100V113.667C159.166 114.573 158.807 115.442 158.167 116.083C157.526 116.724 156.657 117.083 155.75 117.083H155.067C155.629 118.631 155.809 120.292 155.593 121.925C155.377 123.557 154.771 125.114 153.826 126.463C152.88 127.812 151.624 128.913 150.163 129.673C148.702 130.433 147.079 130.83 145.432 130.83C143.785 130.83 142.162 130.433 140.701 129.673C139.24 128.913 137.984 127.811 137.039 126.463C136.093 125.114 135.486 123.558 135.27 121.925C135.054 120.292 135.235 118.631 135.796 117.083H114.067C114.63 118.648 114.803 120.327 114.573 121.974C114.342 123.62 113.714 125.186 112.743 126.536C111.772 127.886 110.487 128.98 108.999 129.723C107.511 130.465 105.864 130.834 104.202 130.799C102.539 130.763 100.91 130.324 99.4556 129.519C98.0008 128.713 96.7634 127.565 95.8511 126.175C94.9388 124.784 94.3792 123.192 94.2192 121.537C94.0594 119.882 94.3039 118.212 94.9331 116.673C93.6893 116.13 92.6349 115.23 91.9048 114.086C91.1747 112.942 90.8018 111.607 90.8335 110.25V76.083C90.7494 74.3687 91.3441 72.6901 92.4888 71.4111C93.6335 70.1321 95.2365 69.3558 96.9497 69.25H135.899ZM104.5 117.083C103.825 117.083 103.164 117.284 102.602 117.659C102.04 118.035 101.602 118.568 101.343 119.192C101.085 119.817 101.017 120.504 101.149 121.167C101.281 121.83 101.607 122.438 102.084 122.916C102.562 123.394 103.171 123.719 103.833 123.851C104.496 123.982 105.184 123.915 105.808 123.656C106.432 123.398 106.966 122.96 107.341 122.398C107.717 121.837 107.917 121.176 107.917 120.5C107.917 119.594 107.557 118.725 106.917 118.084C106.276 117.443 105.407 117.083 104.5 117.083ZM145.5 117.083C144.825 117.083 144.164 117.284 143.602 117.659C143.04 118.035 142.602 118.568 142.343 119.192C142.085 119.817 142.017 120.504 142.149 121.167C142.281 121.83 142.607 122.438 143.084 122.916C143.562 123.394 144.171 123.719 144.833 123.851C145.496 123.982 146.184 123.915 146.808 123.656C147.432 123.398 147.966 122.96 148.341 122.398C148.717 121.837 148.917 121.176 148.917 120.5C148.917 119.594 148.557 118.725 147.917 118.084C147.276 117.443 146.407 117.083 145.5 117.083ZM97.6665 76.083V110.25H135.25V76.083H97.6665ZM142.083 110.25H152.333V101.64L142.083 93.4404V110.25Z" fill="black"/>
<path d="M135.899 69.25C137.624 69.3384 139.245 70.1077 140.404 71.3887C141.563 72.6695 142.167 74.3575 142.083 76.083V84.6934L157.8 97.335C158.216 97.6462 158.555 98.048 158.792 98.5098C159.028 98.9715 159.156 99.4812 159.167 100V113.667C159.166 114.573 158.807 115.442 158.167 116.083C157.526 116.724 156.657 117.083 155.75 117.083H155.067C155.629 118.631 155.809 120.292 155.593 121.925C155.377 123.557 154.771 125.114 153.826 126.463C152.88 127.812 151.624 128.913 150.163 129.673C148.702 130.433 147.079 130.83 145.432 130.83C143.785 130.83 142.162 130.433 140.701 129.673C139.24 128.913 137.984 127.811 137.039 126.463C136.093 125.114 135.486 123.558 135.27 121.925C135.054 120.292 135.235 118.631 135.796 117.083H114.067C114.63 118.648 114.803 120.327 114.573 121.974C114.342 123.62 113.714 125.186 112.743 126.536C111.772 127.886 110.487 128.98 108.999 129.723C107.511 130.465 105.864 130.834 104.202 130.799C102.539 130.763 100.91 130.324 99.4556 129.519C98.0008 128.713 96.7634 127.565 95.8511 126.175C94.9388 124.784 94.3792 123.192 94.2192 121.537C94.0594 119.882 94.3039 118.212 94.9331 116.673C93.6893 116.13 92.6349 115.23 91.9048 114.086C91.1747 112.942 90.8018 111.607 90.8335 110.25V76.083C90.7494 74.3687 91.3441 72.6901 92.4888 71.4111C93.6335 70.1321 95.2365 69.3558 96.9497 69.25H135.899ZM104.5 117.083C103.825 117.083 103.164 117.284 102.602 117.659C102.04 118.035 101.602 118.568 101.343 119.192C101.085 119.817 101.017 120.504 101.149 121.167C101.281 121.83 101.607 122.438 102.084 122.916C102.562 123.394 103.171 123.719 103.833 123.851C104.496 123.982 105.184 123.915 105.808 123.656C106.432 123.398 106.966 122.96 107.341 122.398C107.717 121.837 107.917 121.176 107.917 120.5C107.917 119.594 107.557 118.725 106.917 118.084C106.276 117.443 105.407 117.083 104.5 117.083ZM145.5 117.083C144.825 117.083 144.164 117.284 143.602 117.659C143.04 118.035 142.602 118.568 142.343 119.192C142.085 119.817 142.017 120.504 142.149 121.167C142.281 121.83 142.607 122.438 143.084 122.916C143.562 123.394 144.171 123.719 144.833 123.851C145.496 123.982 146.184 123.915 146.808 123.656C147.432 123.398 147.966 122.96 148.341 122.398C148.717 121.837 148.917 121.176 148.917 120.5C148.917 119.594 148.557 118.725 147.917 118.084C147.276 117.443 146.407 117.083 145.5 117.083ZM97.6665 76.083V110.25H135.25V76.083H97.6665ZM142.083 110.25H152.333V101.64L142.083 93.4404V110.25Z" stroke="black"/>
<path d="M688.958 93.464L688.526 93.944V78.2H690.278V93.944L689.798 93.464H698.414L697.934 93.944V78.2H699.686V95H679.094V78.2H680.846V93.944L680.39 93.464H688.958ZM704.936 95V82.4H706.64V92.408L715.064 82.4H716.576V95H714.872V84.968L706.472 95H704.936ZM727.963 95.12C726.875 95.12 725.891 94.872 725.011 94.376C724.131 93.864 723.427 93.136 722.899 92.192C722.387 91.232 722.131 90.064 722.131 88.688C722.131 87.312 722.387 86.152 722.899 85.208C723.411 84.248 724.107 83.52 724.987 83.024C725.867 82.528 726.859 82.28 727.963 82.28C729.163 82.28 730.235 82.552 731.179 83.096C732.139 83.624 732.891 84.376 733.435 85.352C733.979 86.312 734.251 87.424 734.251 88.688C734.251 89.968 733.979 91.088 733.435 92.048C732.891 93.008 732.139 93.76 731.179 94.304C730.235 94.848 729.163 95.12 727.963 95.12ZM721.459 99.656V82.4H723.091V86.192L722.923 88.712L723.163 91.256V99.656H721.459ZM727.843 93.608C728.739 93.608 729.539 93.408 730.243 93.008C730.947 92.592 731.507 92.016 731.923 91.28C732.339 90.528 732.547 89.664 732.547 88.688C732.547 87.712 732.339 86.856 731.923 86.12C731.507 85.384 730.947 84.808 730.243 84.392C729.539 83.976 728.739 83.768 727.843 83.768C726.947 83.768 726.139 83.976 725.419 84.392C724.715 84.808 724.155 85.384 723.739 86.12C723.339 86.856 723.139 87.712 723.139 88.688C723.139 89.664 723.339 90.528 723.739 91.28C724.155 92.016 724.715 92.592 725.419 93.008C726.139 93.408 726.947 93.608 727.843 93.608ZM743.096 95.12C741.88 95.12 740.784 94.848 739.808 94.304C738.848 93.744 738.088 92.984 737.528 92.024C736.968 91.048 736.688 89.936 736.688 88.688C736.688 87.424 736.968 86.312 737.528 85.352C738.088 84.392 738.848 83.64 739.808 83.096C740.768 82.552 741.864 82.28 743.096 82.28C744.344 82.28 745.448 82.552 746.408 83.096C747.384 83.64 748.144 84.392 748.688 85.352C749.248 86.312 749.528 87.424 749.528 88.688C749.528 89.936 749.248 91.048 748.688 92.024C748.144 92.984 747.384 93.744 746.408 94.304C745.432 94.848 744.328 95.12 743.096 95.12ZM743.096 93.608C744.008 93.608 744.816 93.408 745.52 93.008C746.224 92.592 746.776 92.016 747.176 91.28C747.592 90.528 747.8 89.664 747.8 88.688C747.8 87.696 747.592 86.832 747.176 86.096C746.776 85.36 746.224 84.792 745.52 84.392C744.816 83.976 744.016 83.768 743.12 83.768C742.224 83.768 741.424 83.976 740.72 84.392C740.016 84.792 739.456 85.36 739.04 86.096C738.624 86.832 738.416 87.696 738.416 88.688C738.416 89.664 738.624 90.528 739.04 91.28C739.456 92.016 740.016 92.592 740.72 93.008C741.424 93.408 742.216 93.608 743.096 93.608ZM762.41 95L757.226 88.76L758.642 87.92L764.426 95H762.41ZM753.17 95V82.4H754.874V95H753.17ZM754.346 89.384V87.92H758.402V89.384H754.346ZM758.786 88.88L757.202 88.64L762.218 82.4H764.066L758.786 88.88ZM767.115 95V82.4H768.819V92.408L777.243 82.4H778.755V95H777.051V84.968L768.651 95H767.115ZM783.639 95V82.4H785.343V92.408L793.767 82.4H795.279V95H793.575V84.968L785.175 95H783.639ZM789.351 80.576C788.295 80.576 787.439 80.312 786.783 79.784C786.143 79.24 785.807 78.464 785.775 77.456H786.999C787.015 78.096 787.239 78.6 787.671 78.968C788.103 79.336 788.663 79.52 789.351 79.52C790.039 79.52 790.599 79.336 791.031 78.968C791.479 78.6 791.711 78.096 791.727 77.456H792.951C792.935 78.464 792.599 79.24 791.943 79.784C791.287 80.312 790.423 80.576 789.351 80.576ZM666.717 124V121.216L666.645 120.76V116.104C666.645 115.032 666.341 114.208 665.733 113.632C665.141 113.056 664.253 112.768 663.069 112.768C662.253 112.768 661.477 112.904 660.741 113.176C660.005 113.448 659.381 113.808 658.869 114.256L658.101 112.984C658.741 112.44 659.509 112.024 660.405 111.736C661.301 111.432 662.245 111.28 663.237 111.28C664.869 111.28 666.125 111.688 667.005 112.504C667.901 113.304 668.349 114.528 668.349 116.176V124H666.717ZM662.373 124.12C661.429 124.12 660.605 123.968 659.901 123.664C659.213 123.344 658.685 122.912 658.317 122.368C657.949 121.808 657.765 121.168 657.765 120.448C657.765 119.792 657.917 119.2 658.221 118.672C658.541 118.128 659.053 117.696 659.757 117.376C660.477 117.04 661.437 116.872 662.637 116.872H666.981V118.144H662.685C661.469 118.144 660.621 118.36 660.141 118.792C659.677 119.224 659.445 119.76 659.445 120.4C659.445 121.12 659.725 121.696 660.285 122.128C660.845 122.56 661.629 122.776 662.637 122.776C663.597 122.776 664.421 122.56 665.109 122.128C665.813 121.68 666.325 121.04 666.645 120.208L667.029 121.384C666.709 122.216 666.149 122.88 665.349 123.376C664.565 123.872 663.573 124.12 662.373 124.12ZM678.165 124.12C676.917 124.12 675.797 123.848 674.805 123.304C673.829 122.744 673.061 121.984 672.501 121.024C671.941 120.048 671.661 118.936 671.661 117.688C671.661 116.424 671.941 115.312 672.501 114.352C673.061 113.392 673.829 112.64 674.805 112.096C675.797 111.552 676.917 111.28 678.165 111.28C679.237 111.28 680.205 111.488 681.069 111.904C681.933 112.32 682.613 112.944 683.109 113.776L681.837 114.64C681.405 114 680.869 113.528 680.229 113.224C679.589 112.92 678.893 112.768 678.141 112.768C677.245 112.768 676.437 112.976 675.717 113.392C674.997 113.792 674.429 114.36 674.013 115.096C673.597 115.832 673.389 116.696 673.389 117.688C673.389 118.68 673.597 119.544 674.013 120.28C674.429 121.016 674.997 121.592 675.717 122.008C676.437 122.408 677.245 122.608 678.141 122.608C678.893 122.608 679.589 122.456 680.229 122.152C680.869 121.848 681.405 121.384 681.837 120.76L683.109 121.624C682.613 122.44 681.933 123.064 681.069 123.496C680.205 123.912 679.237 124.12 678.165 124.12ZM691.477 124.12C690.229 124.12 689.109 123.848 688.117 123.304C687.141 122.744 686.373 121.984 685.813 121.024C685.253 120.048 684.973 118.936 684.973 117.688C684.973 116.424 685.253 115.312 685.813 114.352C686.373 113.392 687.141 112.64 688.117 112.096C689.109 111.552 690.229 111.28 691.477 111.28C692.549 111.28 693.517 111.488 694.381 111.904C695.245 112.32 695.925 112.944 696.421 113.776L695.149 114.64C694.717 114 694.181 113.528 693.541 113.224C692.901 112.92 692.205 112.768 691.453 112.768C690.557 112.768 689.749 112.976 689.029 113.392C688.309 113.792 687.741 114.36 687.325 115.096C686.909 115.832 686.701 116.696 686.701 117.688C686.701 118.68 686.909 119.544 687.325 120.28C687.741 121.016 688.309 121.592 689.029 122.008C689.749 122.408 690.557 122.608 691.453 122.608C692.205 122.608 692.901 122.456 693.541 122.152C694.181 121.848 694.717 121.384 695.149 120.76L696.421 121.624C695.925 122.44 695.245 123.064 694.381 123.496C693.517 123.912 692.549 124.12 691.477 124.12ZM704.694 124.12C703.478 124.12 702.382 123.848 701.406 123.304C700.446 122.744 699.686 121.984 699.126 121.024C698.566 120.048 698.286 118.936 698.286 117.688C698.286 116.424 698.566 115.312 699.126 114.352C699.686 113.392 700.446 112.64 701.406 112.096C702.366 111.552 703.462 111.28 704.694 111.28C705.942 111.28 707.046 111.552 708.006 112.096C708.982 112.64 709.742 113.392 710.286 114.352C710.846 115.312 711.126 116.424 711.126 117.688C711.126 118.936 710.846 120.048 710.286 121.024C709.742 121.984 708.982 122.744 708.006 123.304C707.03 123.848 705.926 124.12 704.694 124.12ZM704.694 122.608C705.606 122.608 706.414 122.408 707.118 122.008C707.822 121.592 708.374 121.016 708.774 120.28C709.19 119.528 709.398 118.664 709.398 117.688C709.398 116.696 709.19 115.832 708.774 115.096C708.374 114.36 707.822 113.792 707.118 113.392C706.414 112.976 705.614 112.768 704.718 112.768C703.822 112.768 703.022 112.976 702.318 113.392C701.614 113.792 701.054 114.36 700.638 115.096C700.222 115.832 700.014 116.696 700.014 117.688C700.014 118.664 700.222 119.528 700.638 120.28C701.054 121.016 701.614 121.592 702.318 122.008C703.022 122.408 703.814 122.608 704.694 122.608ZM721.272 124.12C720.184 124.12 719.2 123.872 718.32 123.376C717.44 122.864 716.736 122.136 716.208 121.192C715.696 120.232 715.44 119.064 715.44 117.688C715.44 116.312 715.696 115.152 716.208 114.208C716.72 113.248 717.416 112.52 718.296 112.024C719.176 111.528 720.168 111.28 721.272 111.28C722.472 111.28 723.544 111.552 724.488 112.096C725.448 112.624 726.2 113.376 726.744 114.352C727.288 115.312 727.56 116.424 727.56 117.688C727.56 118.968 727.288 120.088 726.744 121.048C726.2 122.008 725.448 122.76 724.488 123.304C723.544 123.848 722.472 124.12 721.272 124.12ZM714.768 128.656V111.4H716.4V115.192L716.232 117.712L716.472 120.256V128.656H714.768ZM721.152 122.608C722.048 122.608 722.848 122.408 723.552 122.008C724.256 121.592 724.816 121.016 725.232 120.28C725.648 119.528 725.856 118.664 725.856 117.688C725.856 116.712 725.648 115.856 725.232 115.12C724.816 114.384 724.256 113.808 723.552 113.392C722.848 112.976 722.048 112.768 721.152 112.768C720.256 112.768 719.448 112.976 718.728 113.392C718.024 113.808 717.464 114.384 717.048 115.12C716.648 115.856 716.448 116.712 716.448 117.688C716.448 118.664 716.648 119.528 717.048 120.28C717.464 121.016 718.024 121.592 718.728 122.008C719.448 122.408 720.256 122.608 721.152 122.608ZM733.152 124V112.432L733.584 112.888H728.376V111.4H739.632V112.888H734.424L734.856 112.432V124H733.152ZM742.096 124V111.4H743.8V121.408L752.224 111.4H753.736V124H752.032V113.968L743.632 124H742.096ZM758.619 124V111.4H760.347L766.059 121.072H765.339L771.147 111.4H772.731V124H771.171V113.344L771.483 113.488L766.059 122.464H765.291L759.819 113.392L760.179 113.32V124H758.619ZM782.98 124.12C781.668 124.12 780.516 123.848 779.524 123.304C778.532 122.744 777.756 121.984 777.196 121.024C776.636 120.048 776.356 118.936 776.356 117.688C776.356 116.44 776.62 115.336 777.148 114.376C777.692 113.416 778.428 112.664 779.356 112.12C780.3 111.56 781.356 111.28 782.524 111.28C783.708 111.28 784.756 111.552 785.668 112.096C786.596 112.624 787.324 113.376 787.852 114.352C788.38 115.312 788.644 116.424 788.644 117.688C788.644 117.768 788.636 117.856 788.62 117.952C788.62 118.032 788.62 118.12 788.62 118.216H777.652V116.944H787.708L787.036 117.448C787.036 116.536 786.836 115.728 786.436 115.024C786.052 114.304 785.524 113.744 784.852 113.344C784.18 112.944 783.404 112.744 782.524 112.744C781.66 112.744 780.884 112.944 780.196 113.344C779.508 113.744 778.972 114.304 778.588 115.024C778.204 115.744 778.012 116.568 778.012 117.496V117.76C778.012 118.72 778.22 119.568 778.636 120.304C779.068 121.024 779.66 121.592 780.412 122.008C781.18 122.408 782.052 122.608 783.028 122.608C783.796 122.608 784.508 122.472 785.164 122.2C785.836 121.928 786.412 121.512 786.892 120.952L787.852 122.056C787.292 122.728 786.588 123.24 785.74 123.592C784.908 123.944 783.988 124.12 782.98 124.12ZM792.416 124V111.4H794.12V116.968H802.064V111.4H803.768V124H802.064V118.432H794.12V124H792.416ZM811.012 124V112.432L811.444 112.888H806.236V111.4H817.492V112.888H812.284L812.716 112.432V124H811.012Z" fill="black"/>
<path d="M632.615 85.3749C632.419 85.0892 632.159 84.856 631.857 84.695C631.555 84.534 631.22 84.4498 630.88 84.4496H585.554L582.123 72.3004C580.778 67.5164 577.58 67 576.269 67H567.121C565.948 67 565 67.9748 565 69.1776C565 70.3805 565.949 71.3552 567.121 71.3552H576.268C576.557 71.3552 577.44 71.3552 578.043 73.4923L589.846 118.033C590.102 118.973 590.936 119.622 591.887 119.622H620.717C621.612 119.622 622.411 119.046 622.713 118.181L632.875 87.3639C633.108 86.6961 633.011 85.9527 632.615 85.3749H632.615ZM619.225 115.268H593.497L586.746 88.8059H627.865L619.225 115.268ZM615.018 124.035C612.069 124.035 609.679 126.489 609.679 129.518C609.679 132.546 612.069 135 615.018 135C617.968 135 620.358 132.546 620.358 129.518C620.358 126.489 617.968 124.035 615.018 124.035ZM595.797 124.035C592.848 124.035 590.458 126.489 590.458 129.518C590.458 132.546 592.848 135 595.797 135C598.747 135 601.136 132.546 601.136 129.518C601.136 126.489 598.747 124.035 595.797 124.035Z" fill="black"/>
<path d="M1138.99 94L1132.53 85.624L1133.97 84.76L1141.03 94H1138.99ZM1127.49 94V77.2H1129.22V94H1127.49ZM1128.69 86.296V84.736H1133.95V86.296H1128.69ZM1134.12 85.792L1132.48 85.504L1138.75 77.2H1140.67L1134.12 85.792ZM1151.38 94V91.216L1151.31 90.76V86.104C1151.31 85.032 1151.01 84.208 1150.4 83.632C1149.81 83.056 1148.92 82.768 1147.74 82.768C1146.92 82.768 1146.14 82.904 1145.41 83.176C1144.67 83.448 1144.05 83.808 1143.54 84.256L1142.77 82.984C1143.41 82.44 1144.18 82.024 1145.07 81.736C1145.97 81.432 1146.91 81.28 1147.9 81.28C1149.54 81.28 1150.79 81.688 1151.67 82.504C1152.57 83.304 1153.02 84.528 1153.02 86.176V94H1151.38ZM1147.04 94.12C1146.1 94.12 1145.27 93.968 1144.57 93.664C1143.88 93.344 1143.35 92.912 1142.98 92.368C1142.62 91.808 1142.43 91.168 1142.43 90.448C1142.43 89.792 1142.58 89.2 1142.89 88.672C1143.21 88.128 1143.72 87.696 1144.42 87.376C1145.14 87.04 1146.1 86.872 1147.3 86.872H1151.65V88.144H1147.35C1146.14 88.144 1145.29 88.36 1144.81 88.792C1144.34 89.224 1144.11 89.76 1144.11 90.4C1144.11 91.12 1144.39 91.696 1144.95 92.128C1145.51 92.56 1146.3 92.776 1147.3 92.776C1148.26 92.776 1149.09 92.56 1149.78 92.128C1150.48 91.68 1150.99 91.04 1151.31 90.208L1151.7 91.384C1151.38 92.216 1150.82 92.88 1150.02 93.376C1149.23 93.872 1148.24 94.12 1147.04 94.12ZM1165.52 88.672C1164.78 88.992 1164.04 89.248 1163.29 89.44C1162.55 89.616 1161.82 89.704 1161.08 89.704C1159.59 89.704 1158.42 89.368 1157.55 88.696C1156.69 88.008 1156.26 86.952 1156.26 85.528V81.4H1157.94V85.432C1157.94 86.392 1158.25 87.112 1158.87 87.592C1159.5 88.072 1160.34 88.312 1161.39 88.312C1162.03 88.312 1162.7 88.232 1163.41 88.072C1164.11 87.896 1164.82 87.648 1165.54 87.328L1165.52 88.672ZM1165.38 94V81.4H1167.08V94H1165.38ZM1177.32 94.12C1176.01 94.12 1174.86 93.848 1173.86 93.304C1172.87 92.744 1172.1 91.984 1171.54 91.024C1170.98 90.048 1170.7 88.936 1170.7 87.688C1170.7 86.44 1170.96 85.336 1171.49 84.376C1172.03 83.416 1172.77 82.664 1173.7 82.12C1174.64 81.56 1175.7 81.28 1176.86 81.28C1178.05 81.28 1179.1 81.552 1180.01 82.096C1180.94 82.624 1181.66 83.376 1182.19 84.352C1182.72 85.312 1182.98 86.424 1182.98 87.688C1182.98 87.768 1182.98 87.856 1182.96 87.952C1182.96 88.032 1182.96 88.12 1182.96 88.216H1171.99V86.944H1182.05L1181.38 87.448C1181.38 86.536 1181.18 85.728 1180.78 85.024C1180.39 84.304 1179.86 83.744 1179.19 83.344C1178.52 82.944 1177.74 82.744 1176.86 82.744C1176 82.744 1175.22 82.944 1174.54 83.344C1173.85 83.744 1173.31 84.304 1172.93 85.024C1172.54 85.744 1172.35 86.568 1172.35 87.496V87.76C1172.35 88.72 1172.56 89.568 1172.98 90.304C1173.41 91.024 1174 91.592 1174.75 92.008C1175.52 92.408 1176.39 92.608 1177.37 92.608C1178.14 92.608 1178.85 92.472 1179.5 92.2C1180.18 91.928 1180.75 91.512 1181.23 90.952L1182.19 92.056C1181.63 92.728 1180.93 93.24 1180.08 93.592C1179.25 93.944 1178.33 94.12 1177.32 94.12ZM1192.04 94.12C1190.79 94.12 1189.67 93.848 1188.68 93.304C1187.7 92.744 1186.93 91.984 1186.37 91.024C1185.81 90.048 1185.53 88.936 1185.53 87.688C1185.53 86.424 1185.81 85.312 1186.37 84.352C1186.93 83.392 1187.7 82.64 1188.68 82.096C1189.67 81.552 1190.79 81.28 1192.04 81.28C1193.11 81.28 1194.08 81.488 1194.94 81.904C1195.8 82.32 1196.48 82.944 1196.98 83.776L1195.71 84.64C1195.28 84 1194.74 83.528 1194.1 83.224C1193.46 82.92 1192.76 82.768 1192.01 82.768C1191.12 82.768 1190.31 82.976 1189.59 83.392C1188.87 83.792 1188.3 84.36 1187.88 85.096C1187.47 85.832 1187.26 86.696 1187.26 87.688C1187.26 88.68 1187.47 89.544 1187.88 90.28C1188.3 91.016 1188.87 91.592 1189.59 92.008C1190.31 92.408 1191.12 92.608 1192.01 92.608C1192.76 92.608 1193.46 92.456 1194.1 92.152C1194.74 91.848 1195.28 91.384 1195.71 90.76L1196.98 91.624C1196.48 92.44 1195.8 93.064 1194.94 93.496C1194.08 93.912 1193.11 94.12 1192.04 94.12ZM1202.45 94V82.432L1202.88 82.888H1197.67V81.4H1208.93V82.888H1203.72L1204.15 82.432V94H1202.45ZM1211.39 94V81.4H1216.96C1218.38 81.4 1219.5 81.672 1220.32 82.216C1221.15 82.76 1221.56 83.56 1221.56 84.616C1221.56 85.64 1221.17 86.432 1220.39 86.992C1219.6 87.536 1218.57 87.808 1217.29 87.808L1217.63 87.304C1219.13 87.304 1220.24 87.584 1220.94 88.144C1221.64 88.704 1222 89.512 1222 90.568C1222 91.656 1221.6 92.504 1220.8 93.112C1220.01 93.704 1218.79 94 1217.12 94H1211.39ZM1213.04 92.656H1217.05C1218.12 92.656 1218.93 92.488 1219.48 92.152C1220.04 91.8 1220.32 91.24 1220.32 90.472C1220.32 89.704 1220.07 89.144 1219.57 88.792C1219.08 88.44 1218.29 88.264 1217.22 88.264H1213.04V92.656ZM1213.04 86.992H1216.84C1217.81 86.992 1218.56 86.808 1219.07 86.44C1219.6 86.072 1219.86 85.536 1219.86 84.832C1219.86 84.128 1219.6 83.6 1219.07 83.248C1218.56 82.896 1217.81 82.72 1216.84 82.72H1213.04V86.992ZM1231.39 94.12C1230.08 94.12 1228.93 93.848 1227.93 93.304C1226.94 92.744 1226.17 91.984 1225.61 91.024C1225.05 90.048 1224.77 88.936 1224.77 87.688C1224.77 86.44 1225.03 85.336 1225.56 84.376C1226.1 83.416 1226.84 82.664 1227.77 82.12C1228.71 81.56 1229.77 81.28 1230.93 81.28C1232.12 81.28 1233.17 81.552 1234.08 82.096C1235.01 82.624 1235.73 83.376 1236.26 84.352C1236.79 85.312 1237.05 86.424 1237.05 87.688C1237.05 87.768 1237.05 87.856 1237.03 87.952C1237.03 88.032 1237.03 88.12 1237.03 88.216H1226.06V86.944H1236.12L1235.45 87.448C1235.45 86.536 1235.25 85.728 1234.85 85.024C1234.46 84.304 1233.93 83.744 1233.26 83.344C1232.59 82.944 1231.81 82.744 1230.93 82.744C1230.07 82.744 1229.29 82.944 1228.61 83.344C1227.92 83.744 1227.38 84.304 1227 85.024C1226.61 85.744 1226.42 86.568 1226.42 87.496V87.76C1226.42 88.72 1226.63 89.568 1227.05 90.304C1227.48 91.024 1228.07 91.592 1228.82 92.008C1229.59 92.408 1230.46 92.608 1231.44 92.608C1232.21 92.608 1232.92 92.472 1233.57 92.2C1234.25 91.928 1234.82 91.512 1235.3 90.952L1236.26 92.056C1235.7 92.728 1235 93.24 1234.15 93.592C1233.32 93.944 1232.4 94.12 1231.39 94.12ZM1240.83 94V81.4H1242.53V86.968H1250.47V81.4H1252.18V94H1250.47V88.432H1242.53V94H1240.83ZM1257.02 94V81.4H1258.73V86.968H1266.67V81.4H1268.37V94H1266.67V88.432H1258.73V94H1257.02ZM1281.04 94V91.216L1280.97 90.76V86.104C1280.97 85.032 1280.66 84.208 1280.06 83.632C1279.46 83.056 1278.58 82.768 1277.39 82.768C1276.58 82.768 1275.8 82.904 1275.06 83.176C1274.33 83.448 1273.7 83.808 1273.19 84.256L1272.42 82.984C1273.06 82.44 1273.83 82.024 1274.73 81.736C1275.62 81.432 1276.57 81.28 1277.56 81.28C1279.19 81.28 1280.45 81.688 1281.33 82.504C1282.22 83.304 1282.67 84.528 1282.67 86.176V94H1281.04ZM1276.7 94.12C1275.75 94.12 1274.93 93.968 1274.22 93.664C1273.54 93.344 1273.01 92.912 1272.64 92.368C1272.27 91.808 1272.09 91.168 1272.09 90.448C1272.09 89.792 1272.24 89.2 1272.54 88.672C1272.86 88.128 1273.38 87.696 1274.08 87.376C1274.8 87.04 1275.76 86.872 1276.96 86.872H1281.3V88.144H1277.01C1275.79 88.144 1274.94 88.36 1274.46 88.792C1274 89.224 1273.77 89.76 1273.77 90.4C1273.77 91.12 1274.05 91.696 1274.61 92.128C1275.17 92.56 1275.95 92.776 1276.96 92.776C1277.92 92.776 1278.74 92.56 1279.43 92.128C1280.14 91.68 1280.65 91.04 1280.97 90.208L1281.35 91.384C1281.03 92.216 1280.47 92.88 1279.67 93.376C1278.89 93.872 1277.9 94.12 1276.7 94.12ZM1295.35 94V89.464L1295.66 89.824H1291.39C1289.77 89.824 1288.51 89.472 1287.59 88.768C1286.68 88.064 1286.23 87.04 1286.23 85.696C1286.23 84.256 1286.71 83.184 1287.69 82.48C1288.67 81.76 1289.97 81.4 1291.6 81.4H1296.91V94H1295.35ZM1286.13 94L1289.59 89.152H1291.36L1287.98 94H1286.13ZM1295.35 88.96V82.384L1295.66 82.888H1291.65C1290.48 82.888 1289.57 83.112 1288.91 83.56C1288.27 84.008 1287.95 84.736 1287.95 85.744C1287.95 87.616 1289.15 88.552 1291.53 88.552H1295.66L1295.35 88.96ZM1158.12 123L1152.94 116.76L1154.35 115.92L1160.14 123H1158.12ZM1148.88 123V110.4H1150.59V123H1148.88ZM1150.06 117.384V115.92H1154.11V117.384H1150.06ZM1154.5 116.88L1152.91 116.64L1157.93 110.4H1159.78L1154.5 116.88ZM1167.57 123.12C1166.35 123.12 1165.25 122.848 1164.28 122.304C1163.32 121.744 1162.56 120.984 1162 120.024C1161.44 119.048 1161.16 117.936 1161.16 116.688C1161.16 115.424 1161.44 114.312 1162 113.352C1162.56 112.392 1163.32 111.64 1164.28 111.096C1165.24 110.552 1166.33 110.28 1167.57 110.28C1168.81 110.28 1169.92 110.552 1170.88 111.096C1171.85 111.64 1172.61 112.392 1173.16 113.352C1173.72 114.312 1174 115.424 1174 116.688C1174 117.936 1173.72 119.048 1173.16 120.024C1172.61 120.984 1171.85 121.744 1170.88 122.304C1169.9 122.848 1168.8 123.12 1167.57 123.12ZM1167.57 121.608C1168.48 121.608 1169.29 121.408 1169.99 121.008C1170.69 120.592 1171.25 120.016 1171.65 119.28C1172.06 118.528 1172.27 117.664 1172.27 116.688C1172.27 115.696 1172.06 114.832 1171.65 114.096C1171.25 113.36 1170.69 112.792 1169.99 112.392C1169.29 111.976 1168.49 111.768 1167.59 111.768C1166.69 111.768 1165.89 111.976 1165.19 112.392C1164.49 112.792 1163.93 113.36 1163.51 114.096C1163.09 114.832 1162.89 115.696 1162.89 116.688C1162.89 117.664 1163.09 118.528 1163.51 119.28C1163.93 120.016 1164.49 120.592 1165.19 121.008C1165.89 121.408 1166.69 121.608 1167.57 121.608ZM1182.92 123.12C1181.67 123.12 1180.55 122.848 1179.56 122.304C1178.58 121.744 1177.81 120.984 1177.25 120.024C1176.69 119.048 1176.41 117.936 1176.41 116.688C1176.41 115.424 1176.69 114.312 1177.25 113.352C1177.81 112.392 1178.58 111.64 1179.56 111.096C1180.55 110.552 1181.67 110.28 1182.92 110.28C1183.99 110.28 1184.96 110.488 1185.82 110.904C1186.69 111.32 1187.37 111.944 1187.86 112.776L1186.59 113.64C1186.16 113 1185.62 112.528 1184.98 112.224C1184.34 111.92 1183.65 111.768 1182.89 111.768C1182 111.768 1181.19 111.976 1180.47 112.392C1179.75 112.792 1179.18 113.36 1178.77 114.096C1178.35 114.832 1178.14 115.696 1178.14 116.688C1178.14 117.68 1178.35 118.544 1178.77 119.28C1179.18 120.016 1179.75 120.592 1180.47 121.008C1181.19 121.408 1182 121.608 1182.89 121.608C1183.65 121.608 1184.34 121.456 1184.98 121.152C1185.62 120.848 1186.16 120.384 1186.59 119.76L1187.86 120.624C1187.37 121.44 1186.69 122.064 1185.82 122.496C1184.96 122.912 1183.99 123.12 1182.92 123.12ZM1191.16 123V110.4H1192.89L1198.6 120.072H1197.88L1203.69 110.4H1205.27V123H1203.71V112.344L1204.03 112.488L1198.6 121.464H1197.83L1192.36 112.392L1192.72 112.32V123H1191.16ZM1215.52 123.12C1214.21 123.12 1213.06 122.848 1212.07 122.304C1211.08 121.744 1210.3 120.984 1209.74 120.024C1209.18 119.048 1208.9 117.936 1208.9 116.688C1208.9 115.44 1209.16 114.336 1209.69 113.376C1210.24 112.416 1210.97 111.664 1211.9 111.12C1212.84 110.56 1213.9 110.28 1215.07 110.28C1216.25 110.28 1217.3 110.552 1218.21 111.096C1219.14 111.624 1219.87 112.376 1220.4 113.352C1220.92 114.312 1221.19 115.424 1221.19 116.688C1221.19 116.768 1221.18 116.856 1221.16 116.952C1221.16 117.032 1221.16 117.12 1221.16 117.216H1210.2V115.944H1220.25L1219.58 116.448C1219.58 115.536 1219.38 114.728 1218.98 114.024C1218.6 113.304 1218.07 112.744 1217.4 112.344C1216.72 111.944 1215.95 111.744 1215.07 111.744C1214.2 111.744 1213.43 111.944 1212.74 112.344C1212.05 112.744 1211.52 113.304 1211.13 114.024C1210.75 114.744 1210.56 115.568 1210.56 116.496V116.76C1210.56 117.72 1210.76 118.568 1211.18 119.304C1211.61 120.024 1212.2 120.592 1212.96 121.008C1213.72 121.408 1214.6 121.608 1215.57 121.608C1216.34 121.608 1217.05 121.472 1217.71 121.2C1218.38 120.928 1218.96 120.512 1219.44 119.952L1220.4 121.056C1219.84 121.728 1219.13 122.24 1218.28 122.592C1217.45 122.944 1216.53 123.12 1215.52 123.12ZM1226.8 123V111.432L1227.23 111.888H1222.02V110.4H1233.28V111.888H1228.07L1228.5 111.432V123H1226.8ZM1235.74 123V110.4H1237.44V120.408L1245.87 110.4H1247.38V123H1245.68V112.968L1237.28 123H1235.74ZM1261.5 123L1256.32 116.76L1257.74 115.92L1263.52 123H1261.5ZM1252.26 123V110.4H1253.97V123H1252.26ZM1253.44 117.384V115.92H1257.5V117.384H1253.44ZM1257.88 116.88L1256.3 116.64L1261.31 110.4H1263.16L1257.88 116.88ZM1273.8 123V120.216L1273.73 119.76V115.104C1273.73 114.032 1273.42 113.208 1272.81 112.632C1272.22 112.056 1271.33 111.768 1270.15 111.768C1269.33 111.768 1268.56 111.904 1267.82 112.176C1267.09 112.448 1266.46 112.808 1265.95 113.256L1265.18 111.984C1265.82 111.44 1266.59 111.024 1267.49 110.736C1268.38 110.432 1269.33 110.28 1270.32 110.28C1271.95 110.28 1273.21 110.688 1274.09 111.504C1274.98 112.304 1275.43 113.528 1275.43 115.176V123H1273.8ZM1269.45 123.12C1268.51 123.12 1267.69 122.968 1266.98 122.664C1266.29 122.344 1265.77 121.912 1265.4 121.368C1265.03 120.808 1264.85 120.168 1264.85 119.448C1264.85 118.792 1265 118.2 1265.3 117.672C1265.62 117.128 1266.13 116.696 1266.84 116.376C1267.56 116.04 1268.52 115.872 1269.72 115.872H1274.06V117.144H1269.77C1268.55 117.144 1267.7 117.36 1267.22 117.792C1266.76 118.224 1266.53 118.76 1266.53 119.4C1266.53 120.12 1266.81 120.696 1267.37 121.128C1267.93 121.56 1268.71 121.776 1269.72 121.776C1270.68 121.776 1271.5 121.56 1272.19 121.128C1272.89 120.68 1273.41 120.04 1273.73 119.208L1274.11 120.384C1273.79 121.216 1273.23 121.88 1272.43 122.376C1271.65 122.872 1270.65 123.12 1269.45 123.12Z" fill="black"/>
<path d="M1081.35 134H1085.83C1089.86 134 1093.34 133.759 1095.62 133.246C1100.07 132.22 1102.84 129.324 1102.84 125.613C1102.84 124.876 1102.72 124.145 1102.49 123.441C1104.71 121.933 1105.97 119.609 1105.97 117.106C1105.97 115.87 1105.71 114.662 1105.23 113.666C1106.71 112.249 1107.61 110.166 1107.61 107.964C1107.61 106.547 1107.23 105.038 1106.55 103.952C1107.48 102.716 1108 101.056 1108 99.2148C1108 94.7199 1104.26 91.1608 1099.46 91.1608H1087.28C1086.5 91.1608 1085.99 90.8287 1085.99 90.225C1085.99 86.9375 1091.47 79.3045 1091.47 73.18C1091.47 69.0172 1088.37 66 1084.09 66C1080.93 66 1078.8 67.5382 1076.71 71.2801C1072.77 78.3391 1068.13 84.5845 1060.46 93.3323H1054.34C1046.38 93.3323 1040 101.751 1040 112.038C1040 122.204 1047.03 130.651 1055.57 130.651H1066.2C1070.46 132.733 1075.61 134 1081.35 134M1085.86 129.445L1081.38 129.384C1067.88 129.294 1058.72 122.144 1058.72 111.886C1058.72 105.37 1060.27 101.206 1064.65 95.7162C1069.52 89.6522 1076.22 82.3809 1081.06 73.3615C1082.35 70.948 1083.02 70.5554 1084.09 70.5554C1085.67 70.5554 1086.6 71.4912 1086.6 73.1813C1086.6 78.0675 1081.12 85.4894 1081.12 90.225C1081.12 93.6348 1084.15 95.7162 1087.99 95.7162H1099.46C1101.59 95.7162 1103.13 97.2248 1103.13 99.2161C1103.13 100.664 1102.65 101.599 1101.39 102.746C1101.07 103.047 1100.91 103.349 1100.91 103.68C1100.91 103.922 1101.01 104.194 1101.23 104.434C1102.3 105.882 1102.75 106.787 1102.75 107.964C1102.75 109.413 1102 110.619 1100.55 111.675C1099.94 112.097 1099.62 112.58 1099.62 113.093C1099.62 113.274 1099.65 113.486 1099.78 113.697C1100.72 115.356 1101.1 116.019 1101.1 117.106C1101.1 118.735 1100.01 119.972 1097.69 121.088C1097.2 121.329 1096.91 121.692 1096.91 122.144C1096.91 122.324 1096.98 122.505 1097.07 122.716C1097.88 124.557 1097.98 124.858 1097.98 125.613C1097.98 127.092 1096.82 128.268 1094.46 128.811C1092.56 129.263 1089.53 129.474 1085.86 129.445ZM1055.57 126.095C1049.86 126.095 1044.87 119.67 1044.87 112.038C1044.87 104.254 1049.35 97.8877 1054.34 97.8877H1057.31C1054.89 102.112 1053.86 106.547 1053.86 111.796C1053.86 117.467 1056.05 122.355 1059.95 126.097L1055.57 126.095Z" fill="black"/>
<path d="M1608.77 97V80.2H1622.91V97H1621.15V81.256L1621.61 81.736H1610.07L1610.52 81.256V97H1608.77ZM1633.35 97.12C1632.13 97.12 1631.04 96.848 1630.06 96.304C1629.1 95.744 1628.34 94.984 1627.78 94.024C1627.22 93.048 1626.94 91.936 1626.94 90.688C1626.94 89.424 1627.22 88.312 1627.78 87.352C1628.34 86.392 1629.1 85.64 1630.06 85.096C1631.02 84.552 1632.12 84.28 1633.35 84.28C1634.6 84.28 1635.7 84.552 1636.66 85.096C1637.64 85.64 1638.4 86.392 1638.94 87.352C1639.5 88.312 1639.78 89.424 1639.78 90.688C1639.78 91.936 1639.5 93.048 1638.94 94.024C1638.4 94.984 1637.64 95.744 1636.66 96.304C1635.69 96.848 1634.58 97.12 1633.35 97.12ZM1633.35 95.608C1634.26 95.608 1635.07 95.408 1635.77 95.008C1636.48 94.592 1637.03 94.016 1637.43 93.28C1637.85 92.528 1638.05 91.664 1638.05 90.688C1638.05 89.696 1637.85 88.832 1637.43 88.096C1637.03 87.36 1636.48 86.792 1635.77 86.392C1635.07 85.976 1634.27 85.768 1633.37 85.768C1632.48 85.768 1631.68 85.976 1630.97 86.392C1630.27 86.792 1629.71 87.36 1629.29 88.096C1628.88 88.832 1628.67 89.696 1628.67 90.688C1628.67 91.664 1628.88 92.528 1629.29 93.28C1629.71 94.016 1630.27 94.592 1630.97 95.008C1631.68 95.408 1632.47 95.608 1633.35 95.608ZM1643.42 97V84.4H1654.75V97H1653.05V85.432L1653.48 85.888H1644.7L1645.13 85.432V97H1643.42ZM1659.81 101.776C1659.22 101.776 1658.65 101.68 1658.11 101.488C1657.58 101.296 1657.12 101.008 1656.74 100.624L1657.53 99.352C1657.85 99.656 1658.2 99.888 1658.56 100.048C1658.95 100.224 1659.37 100.312 1659.84 100.312C1660.4 100.312 1660.88 100.152 1661.28 99.832C1661.69 99.528 1662.08 98.984 1662.45 98.2L1663.27 96.352L1663.46 96.088L1668.64 84.4H1670.32L1664.01 98.512C1663.66 99.328 1663.27 99.976 1662.84 100.456C1662.42 100.936 1661.96 101.272 1661.47 101.464C1660.97 101.672 1660.42 101.776 1659.81 101.776ZM1663.17 97.36L1657.36 84.4H1659.14L1664.28 95.968L1663.17 97.36ZM1670.14 96.976L1670.26 95.512C1670.37 95.528 1670.47 95.552 1670.57 95.584C1670.68 95.6 1670.78 95.608 1670.86 95.608C1671.37 95.608 1671.78 95.416 1672.08 95.032C1672.4 94.648 1672.64 94.136 1672.8 93.496C1672.96 92.856 1673.07 92.136 1673.14 91.336C1673.2 90.52 1673.26 89.704 1673.3 88.888L1673.52 84.4H1682.76V97H1681.06V85.384L1681.49 85.888H1674.62L1675.03 85.36L1674.84 89.008C1674.79 90.096 1674.7 91.136 1674.58 92.128C1674.46 93.12 1674.28 93.992 1674.02 94.744C1673.78 95.496 1673.45 96.088 1673.02 96.52C1672.58 96.936 1672.03 97.144 1671.36 97.144C1671.17 97.144 1670.97 97.128 1670.76 97.096C1670.57 97.064 1670.36 97.024 1670.14 96.976ZM1695.74 97V92.464L1696.05 92.824H1691.78C1690.16 92.824 1688.9 92.472 1687.99 91.768C1687.08 91.064 1686.62 90.04 1686.62 88.696C1686.62 87.256 1687.11 86.184 1688.08 85.48C1689.06 84.76 1690.36 84.4 1692 84.4H1697.3V97H1695.74ZM1686.52 97L1689.98 92.152H1691.76L1688.37 97H1686.52ZM1695.74 91.96V85.384L1696.05 85.888H1692.04C1690.88 85.888 1689.96 86.112 1689.31 86.56C1688.67 87.008 1688.35 87.736 1688.35 88.744C1688.35 90.616 1689.54 91.552 1691.92 91.552H1696.05L1695.74 91.96ZM1708.66 97.12C1707.57 97.12 1706.59 96.872 1705.71 96.376C1704.83 95.864 1704.13 95.136 1703.6 94.192C1703.09 93.232 1702.83 92.064 1702.83 90.688C1702.83 89.312 1703.09 88.152 1703.6 87.208C1704.11 86.248 1704.81 85.52 1705.69 85.024C1706.57 84.528 1707.56 84.28 1708.66 84.28C1709.86 84.28 1710.93 84.552 1711.88 85.096C1712.84 85.624 1713.59 86.376 1714.13 87.352C1714.68 88.312 1714.95 89.424 1714.95 90.688C1714.95 91.968 1714.68 93.088 1714.13 94.048C1713.59 95.008 1712.84 95.76 1711.88 96.304C1710.93 96.848 1709.86 97.12 1708.66 97.12ZM1702.16 101.656V84.4H1703.79V88.192L1703.62 90.712L1703.86 93.256V101.656H1702.16ZM1708.54 95.608C1709.44 95.608 1710.24 95.408 1710.94 95.008C1711.65 94.592 1712.21 94.016 1712.62 93.28C1713.04 92.528 1713.25 91.664 1713.25 90.688C1713.25 89.712 1713.04 88.856 1712.62 88.12C1712.21 87.384 1711.65 86.808 1710.94 86.392C1710.24 85.976 1709.44 85.768 1708.54 85.768C1707.65 85.768 1706.84 85.976 1706.12 86.392C1705.41 86.808 1704.85 87.384 1704.44 88.12C1704.04 88.856 1703.84 89.712 1703.84 90.688C1703.84 91.664 1704.04 92.528 1704.44 93.28C1704.85 94.016 1705.41 94.592 1706.12 95.008C1706.84 95.408 1707.65 95.608 1708.54 95.608ZM1718.61 97V84.4H1720.32V89.968H1728.26V84.4H1729.96V97H1728.26V91.432H1720.32V97H1718.61ZM1747.09 97V84.4H1748.8V97H1747.09ZM1740.11 88.84C1741.69 88.856 1742.9 89.208 1743.73 89.896C1744.57 90.584 1744.98 91.576 1744.98 92.872C1744.98 94.216 1744.53 95.248 1743.64 95.968C1742.74 96.688 1741.46 97.04 1739.8 97.024L1734.81 97V84.4H1736.51V88.792L1740.11 88.84ZM1739.68 95.728C1740.86 95.744 1741.75 95.512 1742.34 95.032C1742.95 94.536 1743.25 93.816 1743.25 92.872C1743.25 91.928 1742.96 91.24 1742.37 90.808C1741.77 90.36 1740.88 90.128 1739.68 90.112L1736.51 90.064V95.68L1739.68 95.728ZM1759.05 97.12C1757.74 97.12 1756.59 96.848 1755.59 96.304C1754.6 95.744 1753.83 94.984 1753.27 94.024C1752.71 93.048 1752.43 91.936 1752.43 90.688C1752.43 89.44 1752.69 88.336 1753.22 87.376C1753.76 86.416 1754.5 85.664 1755.43 85.12C1756.37 84.56 1757.43 84.28 1758.59 84.28C1759.78 84.28 1760.83 84.552 1761.74 85.096C1762.67 85.624 1763.39 86.376 1763.92 87.352C1764.45 88.312 1764.71 89.424 1764.71 90.688C1764.71 90.768 1764.71 90.856 1764.69 90.952C1764.69 91.032 1764.69 91.12 1764.69 91.216H1753.72V89.944H1763.78L1763.11 90.448C1763.11 89.536 1762.91 88.728 1762.51 88.024C1762.12 87.304 1761.59 86.744 1760.92 86.344C1760.25 85.944 1759.47 85.744 1758.59 85.744C1757.73 85.744 1756.95 85.944 1756.27 86.344C1755.58 86.744 1755.04 87.304 1754.66 88.024C1754.27 88.744 1754.08 89.568 1754.08 90.496V90.76C1754.08 91.72 1754.29 92.568 1754.71 93.304C1755.14 94.024 1755.73 94.592 1756.48 95.008C1757.25 95.408 1758.12 95.608 1759.1 95.608C1759.87 95.608 1760.58 95.472 1761.23 95.2C1761.91 94.928 1762.48 94.512 1762.96 93.952L1763.92 95.056C1763.36 95.728 1762.66 96.24 1761.81 96.592C1760.98 96.944 1760.06 97.12 1759.05 97.12ZM1645.2 126.144C1644.17 126.144 1643.26 125.976 1642.46 125.64C1641.68 125.304 1641.01 124.792 1640.45 124.104C1639.89 123.416 1639.46 122.568 1639.17 121.56C1638.89 120.536 1638.74 119.352 1638.74 118.008C1638.74 116.808 1638.85 115.76 1639.08 114.864C1639.3 113.952 1639.61 113.168 1640.01 112.512C1640.41 111.856 1640.88 111.304 1641.41 110.856C1641.95 110.392 1642.53 110.024 1643.16 109.752C1643.8 109.464 1644.45 109.248 1645.13 109.104L1650.79 107.784L1651.08 109.368L1645.75 110.568C1645.41 110.648 1645.01 110.76 1644.53 110.904C1644.06 111.048 1643.58 111.264 1643.09 111.552C1642.61 111.84 1642.16 112.24 1641.74 112.752C1641.33 113.264 1640.99 113.928 1640.73 114.744C1640.49 115.544 1640.37 116.544 1640.37 117.744C1640.37 118 1640.38 118.208 1640.4 118.368C1640.41 118.512 1640.43 118.672 1640.45 118.848C1640.48 119.008 1640.5 119.248 1640.52 119.568L1639.77 118.944C1639.95 117.968 1640.31 117.12 1640.85 116.4C1641.4 115.664 1642.08 115.096 1642.89 114.696C1643.73 114.28 1644.65 114.072 1645.65 114.072C1646.82 114.072 1647.86 114.328 1648.77 114.84C1649.69 115.336 1650.4 116.032 1650.91 116.928C1651.44 117.824 1651.7 118.864 1651.7 120.048C1651.7 121.216 1651.43 122.264 1650.89 123.192C1650.36 124.12 1649.61 124.848 1648.63 125.376C1647.65 125.888 1646.51 126.144 1645.2 126.144ZM1645.39 124.728C1646.29 124.728 1647.08 124.528 1647.77 124.128C1648.45 123.712 1648.99 123.152 1649.37 122.448C1649.77 121.744 1649.97 120.952 1649.97 120.072C1649.97 119.208 1649.77 118.44 1649.37 117.768C1648.99 117.096 1648.45 116.568 1647.77 116.184C1647.08 115.784 1646.28 115.584 1645.37 115.584C1644.47 115.584 1643.68 115.776 1642.99 116.16C1642.3 116.528 1641.76 117.048 1641.36 117.72C1640.97 118.392 1640.78 119.168 1640.78 120.048C1640.78 120.928 1640.97 121.72 1641.36 122.424C1641.76 123.128 1642.3 123.688 1642.99 124.104C1643.69 124.52 1644.49 124.728 1645.39 124.728ZM1661.86 126.12C1660.77 126.12 1659.79 125.872 1658.91 125.376C1658.03 124.864 1657.32 124.136 1656.79 123.192C1656.28 122.232 1656.03 121.064 1656.03 119.688C1656.03 118.312 1656.28 117.152 1656.79 116.208C1657.31 115.248 1658 114.52 1658.88 114.024C1659.76 113.528 1660.75 113.28 1661.86 113.28C1663.06 113.28 1664.13 113.552 1665.07 114.096C1666.03 114.624 1666.79 115.376 1667.33 116.352C1667.87 117.312 1668.15 118.424 1668.15 119.688C1668.15 120.968 1667.87 122.088 1667.33 123.048C1666.79 124.008 1666.03 124.76 1665.07 125.304C1664.13 125.848 1663.06 126.12 1661.86 126.12ZM1655.35 130.656V113.4H1656.99V117.192L1656.82 119.712L1657.06 122.256V130.656H1655.35ZM1661.74 124.608C1662.63 124.608 1663.43 124.408 1664.14 124.008C1664.84 123.592 1665.4 123.016 1665.82 122.28C1666.23 121.528 1666.44 120.664 1666.44 119.688C1666.44 118.712 1666.23 117.856 1665.82 117.12C1665.4 116.384 1664.84 115.808 1664.14 115.392C1663.43 114.976 1662.63 114.768 1661.74 114.768C1660.84 114.768 1660.03 114.976 1659.31 115.392C1658.61 115.808 1658.05 116.384 1657.63 117.12C1657.23 117.856 1657.03 118.712 1657.03 119.688C1657.03 120.664 1657.23 121.528 1657.63 122.28C1658.05 123.016 1658.61 123.592 1659.31 124.008C1660.03 124.408 1660.84 124.608 1661.74 124.608ZM1677.21 126.12C1675.89 126.12 1674.74 125.848 1673.75 125.304C1672.76 124.744 1671.98 123.984 1671.42 123.024C1670.86 122.048 1670.58 120.936 1670.58 119.688C1670.58 118.44 1670.85 117.336 1671.37 116.376C1671.92 115.416 1672.65 114.664 1673.58 114.12C1674.53 113.56 1675.58 113.28 1676.75 113.28C1677.93 113.28 1678.98 113.552 1679.89 114.096C1680.82 114.624 1681.55 115.376 1682.08 116.352C1682.61 117.312 1682.87 118.424 1682.87 119.688C1682.87 119.768 1682.86 119.856 1682.85 119.952C1682.85 120.032 1682.85 120.12 1682.85 120.216H1671.88V118.944H1681.93L1681.26 119.448C1681.26 118.536 1681.06 117.728 1680.66 117.024C1680.28 116.304 1679.75 115.744 1679.08 115.344C1678.41 114.944 1677.63 114.744 1676.75 114.744C1675.89 114.744 1675.11 114.944 1674.42 115.344C1673.73 115.744 1673.2 116.304 1672.81 117.024C1672.43 117.744 1672.24 118.568 1672.24 119.496V119.76C1672.24 120.72 1672.45 121.568 1672.86 122.304C1673.29 123.024 1673.89 123.592 1674.64 124.008C1675.41 124.408 1676.28 124.608 1677.25 124.608C1678.02 124.608 1678.73 124.472 1679.39 124.2C1680.06 123.928 1680.64 123.512 1681.12 122.952L1682.08 124.056C1681.52 124.728 1680.81 125.24 1679.97 125.592C1679.13 125.944 1678.21 126.12 1677.21 126.12ZM1686.64 126V113.4H1688.35V118.968H1696.29V113.4H1697.99V126H1696.29V120.432H1688.35V126H1686.64ZM1711.48 125.184V114.888H1705.41L1705.26 117.696C1705.23 118.544 1705.17 119.376 1705.09 120.192C1705.03 121.008 1704.91 121.76 1704.73 122.448C1704.57 123.12 1704.34 123.672 1704.04 124.104C1703.73 124.52 1703.34 124.76 1702.86 124.824L1701.16 124.512C1701.65 124.528 1702.06 124.352 1702.38 123.984C1702.7 123.6 1702.95 123.08 1703.13 122.424C1703.3 121.768 1703.43 121.024 1703.51 120.192C1703.59 119.344 1703.65 118.48 1703.7 117.6L1703.87 113.4H1713.18V125.184H1711.48ZM1700.63 129.048V124.512H1715.15V129.048H1713.54V126H1702.24V129.048H1700.63ZM1730.76 126V113.4H1732.46V126H1730.76ZM1723.77 117.84C1725.36 117.856 1726.57 118.208 1727.4 118.896C1728.23 119.584 1728.65 120.576 1728.65 121.872C1728.65 123.216 1728.2 124.248 1727.3 124.968C1726.41 125.688 1725.13 126.04 1723.46 126.024L1718.47 126V113.4H1720.17V117.792L1723.77 117.84ZM1723.34 124.728C1724.53 124.744 1725.41 124.512 1726.01 124.032C1726.61 123.536 1726.92 122.816 1726.92 121.872C1726.92 120.928 1726.62 120.24 1726.03 119.808C1725.44 119.36 1724.54 119.128 1723.34 119.112L1720.17 119.064V124.68L1723.34 124.728Z" fill="black"/>
<path d="M1544 125.438V104.062C1544 103.118 1543.63 102.212 1542.97 101.543C1542.32 100.875 1541.43 100.5 1540.5 100.5H1526.5C1525.57 100.5 1524.68 100.875 1524.03 101.543C1523.37 102.212 1523 103.118 1523 104.062V125.438C1523 126.382 1523.37 127.288 1524.03 127.957C1524.68 128.625 1525.57 129 1526.5 129M1544 125.438C1544 126.382 1543.63 127.288 1542.97 127.957C1542.32 128.625 1541.43 129 1540.5 129H1526.5M1544 125.438C1544 126.382 1544.37 127.288 1545.03 127.957C1545.68 128.625 1546.57 129 1547.5 129H1561.5C1562.43 129 1563.32 128.625 1563.97 127.957C1564.63 127.288 1565 126.382 1565 125.438M1544 125.438V89.8125C1544 88.8677 1544.37 87.9615 1545.03 87.2934C1545.68 86.6253 1546.57 86.25 1547.5 86.25H1561.5C1562.43 86.25 1563.32 86.6253 1563.97 87.2934C1564.63 87.9615 1565 88.8677 1565 89.8125V125.438M1526.5 129H1575.5M1565 125.438C1565 126.382 1565.37 127.288 1566.03 127.957C1566.68 128.625 1567.57 129 1568.5 129H1582.5C1583.43 129 1584.32 128.625 1584.97 127.957C1585.63 127.288 1586 126.382 1586 125.438V75.5625C1586 74.6177 1585.63 73.7115 1584.97 73.0434C1584.32 72.3753 1583.43 72 1582.5 72H1568.5C1567.57 72 1566.68 72.3753 1566.03 73.0434C1565.37 73.7115 1565 74.6177 1565 75.5625V125.438Z" stroke="black" stroke-width="4" stroke-linecap="round" stroke-linejoin="round"/>
</svg>
