<svg width="262" height="89" viewBox="0 0 262 89" fill="none" xmlns="http://www.w3.org/2000/svg">
<rect width="262" height="89" fill="#D9D9D9"/>
<path d="M66.9155 68V62.816L66.5795 61.712V52.64C66.5795 50.88 66.0515 49.52 64.9955 48.56C63.9395 47.568 62.3395 47.072 60.1955 47.072C58.7555 47.072 57.3315 47.296 55.9235 47.744C54.5475 48.192 53.3795 48.816 52.4195 49.616L50.0675 45.248C51.4435 44.192 53.0755 43.408 54.9635 42.896C56.8835 42.352 58.8675 42.08 60.9155 42.08C64.6275 42.08 67.4915 42.976 69.5075 44.768C71.5555 46.528 72.5795 49.264 72.5795 52.976V68H66.9155ZM58.8515 68.336C56.9315 68.336 55.2515 68.016 53.8115 67.376C52.3715 66.704 51.2515 65.792 50.4515 64.64C49.6835 63.456 49.2995 62.128 49.2995 60.656C49.2995 59.216 49.6355 57.92 50.3075 56.768C51.0115 55.616 52.1475 54.704 53.7155 54.032C55.2835 53.36 57.3635 53.024 59.9555 53.024H67.3955V57.008H60.3875C58.3395 57.008 56.9635 57.344 56.2595 58.016C55.5555 58.656 55.2035 59.456 55.2035 60.416C55.2035 61.504 55.6355 62.368 56.4995 63.008C57.3635 63.648 58.5635 63.968 60.0995 63.968C61.5715 63.968 62.8835 63.632 64.0355 62.96C65.2195 62.288 66.0675 61.296 66.5795 59.984L67.5875 63.584C67.0115 65.088 65.9715 66.256 64.4675 67.088C62.9955 67.92 61.1235 68.336 58.8515 68.336ZM85.1758 62.288L85.3198 54.752L98.7118 42.368H105.912L94.5358 53.792L91.3678 56.432L85.1758 62.288ZM80.2798 68V32.384H86.2798V68H80.2798ZM99.6238 68L90.2638 56.432L94.0558 51.632L106.92 68H99.6238ZM115.691 62.288L115.835 54.752L129.227 42.368H136.427L125.051 53.792L121.883 56.432L115.691 62.288ZM110.795 68V32.384H116.795V68H110.795ZM130.139 68L120.779 56.432L124.571 51.632L137.435 68H130.139ZM152.328 68.336C149.48 68.336 146.984 67.776 144.84 66.656C142.728 65.504 141.08 63.936 139.896 61.952C138.744 59.968 138.168 57.712 138.168 55.184C138.168 52.624 138.728 50.368 139.848 48.416C141 46.432 142.568 44.88 144.552 43.76C146.568 42.64 148.856 42.08 151.416 42.08C153.912 42.08 156.136 42.624 158.088 43.712C160.04 44.8 161.576 46.336 162.696 48.32C163.816 50.304 164.376 52.64 164.376 55.328C164.376 55.584 164.36 55.872 164.328 56.192C164.328 56.512 164.312 56.816 164.28 57.104H142.92V53.12H161.112L158.76 54.368C158.792 52.896 158.488 51.6 157.848 50.48C157.208 49.36 156.328 48.48 155.208 47.84C154.12 47.2 152.856 46.88 151.416 46.88C149.944 46.88 148.648 47.2 147.528 47.84C146.44 48.48 145.576 49.376 144.936 50.528C144.328 51.648 144.024 52.976 144.024 54.512V55.472C144.024 57.008 144.376 58.368 145.08 59.552C145.784 60.736 146.776 61.648 148.056 62.288C149.336 62.928 150.808 63.248 152.472 63.248C153.912 63.248 155.208 63.024 156.36 62.576C157.512 62.128 158.536 61.424 159.432 60.464L162.648 64.16C161.496 65.504 160.04 66.544 158.28 67.28C156.552 67.984 154.568 68.336 152.328 68.336ZM170.139 68V42.368H175.851V49.424L175.179 47.36C175.947 45.632 177.147 44.32 178.779 43.424C180.443 42.528 182.507 42.08 184.971 42.08V47.792C184.715 47.728 184.475 47.696 184.251 47.696C184.027 47.664 183.803 47.648 183.579 47.648C181.307 47.648 179.499 48.32 178.155 49.664C176.811 50.976 176.139 52.944 176.139 55.568V68H170.139ZM193.111 77.648C191.863 77.648 190.615 77.44 189.367 77.024C188.119 76.608 187.079 76.032 186.246 75.296L188.646 70.88C189.255 71.424 189.943 71.856 190.711 72.176C191.479 72.496 192.263 72.656 193.062 72.656C194.151 72.656 195.031 72.384 195.703 71.84C196.375 71.296 196.999 70.384 197.575 69.104L199.062 65.744L199.543 65.024L209.239 42.368H214.999L202.999 70.064C202.199 71.984 201.303 73.504 200.311 74.624C199.351 75.744 198.263 76.528 197.047 76.976C195.863 77.424 194.551 77.648 193.111 77.648ZM198.391 68.912L186.822 42.368H193.062L202.471 64.496L198.391 68.912Z" fill="black"/>
</svg>
