<svg width="33" height="37" viewBox="0 0 33 37" fill="none" xmlns="http://www.w3.org/2000/svg">
<g clip-path="url(#clip0_268_1022)" filter="url(#filter0_d_268_1022)">
<path d="M32.7637 8.04263C32.6806 7.92457 32.5703 7.82822 32.4422 7.76167C32.314 7.69513 32.1718 7.66034 32.0274 7.66025H12.7941L11.3382 2.63962C10.7672 0.662641 9.41056 0.449219 8.85412 0.449219H4.9722C4.47464 0.449219 4.07227 0.852047 4.07227 1.34912C4.07227 1.8462 4.47509 2.249 4.97217 2.249H8.85364C8.97644 2.249 9.35117 2.249 9.60676 3.13214L14.6152 21.5385C14.7239 21.9269 15.0778 22.1951 15.4815 22.1951H27.715C28.0947 22.1951 28.4336 21.9572 28.5619 21.5997L32.8738 8.8646C32.9731 8.58865 32.9318 8.28143 32.7637 8.04263H32.7637ZM27.0817 20.3958H16.1646L13.2999 9.46052H30.7479L27.0817 20.3958ZM25.2968 24.019C24.0453 24.019 23.0312 25.0331 23.0312 26.2846C23.0312 27.5361 24.0453 28.5502 25.2968 28.5502C26.5484 28.5502 27.5625 27.5361 27.5625 26.2846C27.5625 25.0331 26.5484 24.019 25.2968 24.019ZM17.1406 24.019C15.8891 24.019 14.875 25.0331 14.875 26.2846C14.875 27.5361 15.8891 28.5502 17.1406 28.5502C18.3921 28.5502 19.4062 27.5361 19.4062 26.2846C19.4062 25.0331 18.3921 24.019 17.1406 24.019Z" fill="black"/>
</g>
<defs>
<filter id="filter0_d_268_1022" x="0" y="0" width="37" height="37" filterUnits="userSpaceOnUse" color-interpolation-filters="sRGB">
<feFlood flood-opacity="0" result="BackgroundImageFix"/>
<feColorMatrix in="SourceAlpha" type="matrix" values="0 0 0 0 0 0 0 0 0 0 0 0 0 0 0 0 0 0 127 0" result="hardAlpha"/>
<feOffset dy="4"/>
<feGaussianBlur stdDeviation="2"/>
<feComposite in2="hardAlpha" operator="out"/>
<feColorMatrix type="matrix" values="0 0 0 0 0 0 0 0 0 0 0 0 0 0 0 0 0 0 0.25 0"/>
<feBlend mode="normal" in2="BackgroundImageFix" result="effect1_dropShadow_268_1022"/>
<feBlend mode="normal" in="SourceGraphic" in2="effect1_dropShadow_268_1022" result="shape"/>
</filter>
<clipPath id="clip0_268_1022">
<rect width="29" height="29" fill="white" transform="translate(4)"/>
</clipPath>
</defs>
</svg>
